<svg width="88" height="88" xmlns="http://www.w3.org/2000/svg" xmlns:xlink="http://www.w3.org/1999/xlink" overflow="hidden"><defs><clipPath id="clip0"><rect x="0" y="0" width="88" height="88"/></clipPath></defs><g clip-path="url(#clip0)"><path d="M58.6667 27.5C58.6667 35.6002 52.1002 42.1667 44 42.1667 35.8998 42.1667 29.3333 35.6002 29.3333 27.5 29.3333 19.3998 35.8998 12.8333 44 12.8333 52.1002 12.8333 58.6667 19.3998 58.6667 27.5Z" fill="#FFFFFF"/><path d="M73.3333 75.1667 73.3333 60.5C73.3333 58.3 72.2333 56.1 70.4 54.6333 66.3667 51.3333 61.2333 49.1333 56.1 47.6667 52.4333 46.5667 48.4 45.8333 44 45.8333 39.9667 45.8333 35.9333 46.5667 31.9 47.6667 26.7667 49.1333 21.6333 51.7 17.6 54.6333 15.7667 56.1 14.6667 58.3 14.6667 60.5L14.6667 75.1667 73.3333 75.1667Z" fill="#FFFFFF"/></g></svg>