<svg width="105" height="105" xmlns="http://www.w3.org/2000/svg" xmlns:xlink="http://www.w3.org/1999/xlink" overflow="hidden"><defs><clipPath id="clip0"><rect x="0" y="0" width="105" height="105"/></clipPath></defs><g clip-path="url(#clip0)"><path d="M92.9688 47.3594 99.5313 47.3594 99.5313 57.5313 92.9688 57.5313Z" fill="#FF724A"/><path d="M71.0938 47.3594 77.6563 47.3594 77.6563 57.5313 71.0938 57.5313Z" fill="#FF724A"/><path d="M5.46875 47.3594 12.0313 47.3594 12.0313 57.5313 5.46875 57.5313Z" fill="#FF724A"/><path d="M82.0313 42.3281 88.5938 42.3281 88.5938 62.7813 82.0313 62.7813Z" fill="#FF724A"/><path d="M60.1563 42.3281 66.7188 42.3281 66.7188 62.7813 60.1563 62.7813Z" fill="#FF724A"/><path d="M16.4063 42.3281 22.9688 42.3281 22.9688 62.7813 16.4063 62.7813Z" fill="#FF724A"/><path d="M49.2188 37.1875 55.7813 37.1875 55.7813 67.8125 49.2188 67.8125Z" fill="#FF724A"/><path d="M27.3438 32.0469 33.9063 32.0469 33.9063 72.8438 27.3438 72.8438Z" fill="#FF724A"/><path d="M38.2813 21.875 44.8438 21.875 44.8438 83.125 38.2813 83.125Z" fill="#FF724A"/></g></svg>