<svg width="202" height="202" xmlns="http://www.w3.org/2000/svg" xmlns:xlink="http://www.w3.org/1999/xlink" overflow="hidden"><defs><clipPath id="clip0"><rect x="566" y="759" width="202" height="202"/></clipPath></defs><g clip-path="url(#clip0)" transform="translate(-566 -759)"><path d="M666.806 929.549C634.258 929.558 607.865 903.18 607.856 870.632 607.847 838.084 634.225 811.691 666.773 811.682 699.321 811.673 725.714 838.051 725.723 870.599 725.723 870.604 725.723 870.61 725.723 870.616 725.781 903.106 699.49 929.491 667 929.549 666.936 929.549 666.871 929.549 666.806 929.549ZM716.675 819.259 722.988 812.947C725.346 810.439 725.253 806.502 722.777 804.109 720.341 801.735 716.486 801.643 713.94 803.899L706.786 811.263C696.775 804.482 685.173 800.421 673.119 799.48L673.119 790.642 692.056 790.642 692.056 778.017 641.556 778.017 641.556 790.642 660.494 790.642 660.494 799.27C621.024 802.704 591.811 837.485 595.245 876.955 598.679 916.426 633.46 945.639 672.931 942.204 712.401 938.77 741.614 903.989 738.18 864.518 736.685 847.338 729.051 831.27 716.675 819.259Z" stroke="#FF724A" stroke-width="4.0199" fill="#EDE9D9"/><path d="M702.495 906.277C722.208 886.547 722.194 854.572 702.463 834.859 693.002 825.406 680.177 820.092 666.802 820.084L666.802 870.584Z" stroke="#FF724A" stroke-width="4.0199" fill="#EDE9D9"/></g></svg>